PathFileType	3	(X/Y/Z)	D:\Jess\PFP\Labelled\PA12\20250811\SRRun01.trc
DataRate	CameraRate	NumFrames	NumMarkers	Units	OrigDataRate	OrigDataStartFrame	OrigNumFrames
250.0	250.0	4	37	mm	250.0	35000	2501
Frame#	Time	C7			T10			CLAV			LSHO			RSHO			LASIS			RASIS			LPSIS			RPSIS			LILCR			RILCR			LGTR			LTHI			LLTHI			LLEP			LMEP			LPSH			LLSH			LDSH			LLMAL			LMMAL			LTOE			L5TH			LHEE			RGTR			RTHI			RLTHI			RLEP			RMEP			RPSH			RLSH			RDSH			RLMAL			RMMAL			RTOE			R5TH			RHEE			
		X1	Y1	Z1	X2	Y2	Z2	X3	Y3	Z3	X4	Y4	Z4	X5	Y5	Z5	X6	Y6	Z6	X7	Y7	Z7	X8	Y8	Z8	X9	Y9	Z9	X10	Y10	Z10	X11	Y11	Z11	X12	Y12	Z12	X13	Y13	Z13	X14	Y14	Z14	X15	Y15	Z15	X16	Y16	Z16	X17	Y17	Z17	X18	Y18	Z18	X19	Y19	Z19	X20	Y20	Z20	X21	Y21	Z21	X22	Y22	Z22	X23	Y23	Z23	X24	Y24	Z24	X25	Y25	Z25	X26	Y26	Z26	X27	Y27	Z27	X28	Y28	Z28	X29	Y29	Z29	X30	Y30	Z30	X31	Y31	Z31	X32	Y32	Z32	X33	Y33	Z33	X34	Y34	Z34	X35	Y35	Z35	X36	Y36	Z36	X37	Y37	Z37	

1	139.996	882.2411809135352	1521.985657235043	-326.4845391725447	797.3494374754415	1239.125269261723	-317.3937829941045	1030.870644424405	1393.740805516328	-372.4207111825785	890.1945314914676	1511.948567515302	-488.0629640990534	984.9281556540974	1494.97461217594	-195.3537800744359	1001.986135442528	993.9385893004239	-475.8805779495394	1025.252853052243	971.8802294097515	-245.3519723915385	798.4692051799215	1027.95907458209	-357.4207750278284	801.1182448779542	1026.233422927672	-314.4340823712262	912.1731301550342	1076.338056988944	-540.0075506187144	924.2086845000863	1060.472086348973	-162.3108257947281	965.0684210964479	898.1781801031711	-549.8909600338882	1100.745447657647	759.4609779538749	-462.970482859731	1014.668081550773	636.1446346537019	-508.1806164185751	1041.143783153806	506.2208500261808	-482.2967620144626	nan	nan	nan	1093.170567113373	432.7910087878488	-412.4319635871628	1012.614378603783	308.8693600896624	-467.6805351342779	1047.623115876514	203.2746691212903	-381.790564475914	980.7937122011857	101.9757734204482	-408.7905543414842	nan	nan	nan	1141.132678973949	68.505973443437	-410.3541166811578	1102.351932060026	43.53034240544935	-452.4975609804685	909.1236880880633	75.79591896187767	-360.6428208848837	902.7198771830757	858.4391872921325	-147.7875407823686	1035.622667494166	657.2572078690232	-247.3867158500506	894.5266530720329	591.8596330970114	-184.8768984890084	859.1376624252883	491.9635775145384	-205.236479419605	nan	nan	nan	811.2748196015472	398.4243008338236	-262.9767188057029	674.9095533285368	450.3221123338422	-215.0128013490155	579.6987306440165	351.318107065342	-272.993162916566	466.5313573645719	377.2904825900866	-254.1200630993665	nan	nan	nan	412.1806632667395	228.4309484087453	-240.3696756077584	377.088014695784	274.3627494314194	-216.513537374394	444.9238782591838	443.7873488089853	-334.668115340308	
2	140	882.662696214926	1520.404880938167	-327.3612420964078	796.482250919025	1237.997471393476	-317.1866308683873	1031.600995614184	1390.707949867293	-372.011535274396	891.2510226307478	1509.440797853696	-489.088524200453	984.7436520580876	1492.664212766351	-195.2259013357057	1000.284707622361	991.7803186800674	-476.8324598672177	1024.154897863915	967.7497448462111	-246.0385783494249	797.4236554333338	1026.279284593167	-355.7445843037584	800.3128251095333	1023.920741932559	-312.8599083545245	909.25041149554	1074.224375722095	-539.4929917114918	923.4944055820965	1055.07681768933	-161.694848822569	962.9751973258069	897.1527938332747	-549.7619781239556	1100.438088942394	759.9384500143874	-462.4752265279574	1014.901975025636	635.1572216668987	-508.4879535647692	1040.979651631774	505.3796024065538	-482.0887227146835	nan	nan	nan	1090.184236505507	431.5484176131492	-411.6096893127648	1006.851948771459	309.0454954977504	-467.8146500155115	1039.501778961418	202.4040150496535	-381.5369855221085	970.5827377559136	102.4960023198392	-408.738463459172	nan	nan	nan	1130.395139697574	67.92331047966033	-410.310173109675	1091.382487143684	43.42456702958962	-452.5509166994946	898.4491388956571	76.64702515550066	-360.5694737049765	904.2461211181069	853.2487251433403	-147.5684906104931	1039.794610339371	657.2707912718012	-247.4088264713072	900.5511889506322	589.5990360542829	-183.8852426072527	867.7672823443453	489.8789796119986	-203.9089916037405	nan	nan	nan	820.1363218056741	396.7175569007808	-261.9387865942984	684.2165376831055	449.4020136313437	-213.3268434887693	588.2182224338147	351.8035238063468	-272.3138171888154	475.3588787482177	378.5815745874224	-252.6721844292957	nan	nan	nan	421.8731783251772	229.5037732220372	-239.4136043424474	386.9354869826377	275.1865820217287	-214.6203854566779	452.5167923957009	445.6211867465187	-332.5725438744133	
3	140.004	883.081243430181	1518.831272312598	-328.2180130516225	795.6202613688546	1236.875923200941	-316.984035396231	1032.320814958004	1387.684276113867	-371.6034196403665	892.3004892561298	1506.951651138	-490.1057944810905	984.5646961521619	1490.375908148974	-195.1009498797912	998.5958782200045	989.6345825490222	-477.7733245274723	1023.055147112263	963.6329743416198	-246.7157718598714	796.3845371845745	1024.613296984404	-354.0960402881638	799.5085437359189	1021.637147907968	-311.3116806109579	906.3633517958641	1072.141595655961	-538.980109096304	922.7690483065591	1049.782735314748	-161.0989173651886	960.9114411368704	896.1453432278404	-549.6250084042039	1100.12545951155	760.3907693964064	-461.9593936105659	1015.115672562105	634.1703454695272	-508.8053491495105	1040.759295455649	504.5213628036658	-481.9057763786711	nan	nan	nan	1087.219677137882	430.2807289230711	-410.8622780441406	1001.133351787132	309.1970779714179	-467.9565080973725	1031.457627367318	201.5366380975176	-381.2960442763591	960.4705462984513	103.0110941633652	-408.6917849925042	nan	nan	nan	1119.760475305706	67.34857412644159	-410.2711043237725	1080.519445111411	43.31809815083695	-452.6070491624845	887.879164468109	77.49019044744202	-360.5016175956667	905.7336399529737	848.1332379466811	-147.3709859703628	1043.92718743423	657.262242841961	-247.4634734058887	906.5362631550026	587.3449255619864	-182.8988054390333	876.333281763707	487.7904145480597	-202.5951552244317	nan	nan	nan	828.9256328785079	395.0203540188372	-260.9153903050091	693.4500605954371	448.4909048552261	-211.6545826660818	596.6704262442726	352.2825636886484	-271.6369595609838	484.1104717841328	379.8652741963603	-251.234184621217	nan	nan	nan	431.4852262275512	230.5526077845124	-238.465812289836	396.6991025168039	275.9916026232718	-212.7420078349837	460.0396824373581	447.4446241612588	-330.4880592960905	
4	140.008	883.4962979680535	1517.28226194505	-329.0431127070038	794.7690217682464	1235.777570714339	-316.8009012084071	1033.022710485258	1384.693552114057	-371.1859633101651	893.3580010622152	1504.512754762942	-491.1059072426976	984.3831376384641	1488.140276636906	-194.9752605031023	996.9301907250773	987.5179230495318	-478.6831426554238	1021.946534352072	959.5723416699195	-247.3606140218184	795.3534652264656	1022.98766050541	-352.5081712377034	798.6994870554	1019.424310029985	-309.8212985475337	903.5491316183384	1070.121727773968	-538.4734544869926	922.0027065827586	1044.688828409456	-160.5399015019417	958.8877241914661	895.1613168746862	-549.475258662149	1099.759140768449	760.7662717794126	-461.4207735121768	1015.224051031259	633.178032238495	-509.1323153016386	1040.35573606674	503.6227475715766	-481.7625011612067	nan	nan	nan	1084.212101503774	428.9557149324921	-410.2469514797359	995.4100703365956	309.300810058448	-468.108170951104	1023.466508667146	200.6730485813372	-381.0768731981846	950.4493750158258	103.5170492540072	-408.6539650897646	nan	nan	nan	1109.223423151974	66.78760172851972	-410.2405329274199	1069.760477302841	43.21079305464156	-452.6680205806117	877.4087489592229	78.31782437574743	-360.4431237786692	907.1363482654258	843.1789662428199	-147.2220881020717	1048.010915522605	657.266381210288	-247.5667877051591	912.4930699202788	585.1443472156463	-181.9204608482986	884.8490651903865	485.7383124068671	-201.306255416233	nan	nan	nan	837.6627302079715	393.3745541693355	-259.9228637786368	702.6239087574222	447.6007512534156	-210.0048834118578	605.0866616696668	352.7338824070916	-270.9600143041074	492.8057784116725	381.0899740909305	-249.8050378268086	nan	nan	nan	441.0790857277943	231.5128515109018	-237.5241469052402	406.4302869497375	276.7033955847082	-210.8816100298297	467.4940951345006	449.1890744036115	-328.4113621267946	
